# xmcd CD database file
#
# Track frame offsets:
#	150
#	98980
#	119557
#	148894
#	159192
#
# Disc length: 2524 seconds
#
# Revision: 0
# Processed by: cddbd v1.5.2PL0 Copyright (c) Steve Scherf et al.
# Submitted via: CDex 1.51
#
DISCID=4109da05
DTITLE=John Tchicai and Cadentia Nova Dancia - Afrodisiaca
DYEAR=1969
DGENRE=Jazz
TTITLE0=Afrodisiaca
TTITLE1=Heavenly Love On A Planet
TTITLE2=Fodringsmontage
TTITLE3=This Is Heaven
TTITLE4=Lakshmi
EXTD=YEAR: 1969
EXTT0=
EXTT1=
EXTT2=
EXTT3=
EXTT4=
PLAYORDER=
